# xmcd
#
# Track frame offsets:
#	150
#	14806
#	31760
#	46647
#	67483
#	92200
#	109519
#	131130
#	160497
#	176961
#	193790
#	209189
#	225575
#	260948
#
# Disc length: 3728 seconds
#
# Revision: 0
# Processed by: cddbd v1.5.2PL0 Copyright (c) Steve Scherf et al.
# Submitted via: EZCDDA 4.3.3.2
#
DISCID=db0e8e0e
DTITLE=Eric Clapton - Unplugged
DYEAR=1900
DGENRE=
TTITLE0=Signe
TTITLE1=Befor you accuse me
TTITLE2=Hey hey
TTITLE3=Tears in heaven
TTITLE4=Lonely stranger
TTITLE5=Nobody knows you when you're down and out
TTITLE6=Layla
TTITLE7=Running on faith
TTITLE8=Walkin' blues
TTITLE9=Alberta
TTITLE10=San Francisco bay blues
TTITLE11=Malted milk
TTITLE12=Old love
TTITLE13=Rollin' and tumblin'
EXTD=
EXTT0=
EXTT1=
EXTT2=
EXTT3=
EXTT4=
EXTT5=
EXTT6=
EXTT7=
EXTT8=
EXTT9=
EXTT10=
EXTT11=
EXTT12=
EXTT13=
PLAYORDER=
